<?xml version="1.0" ?>
<!DOCTYPE svg  PUBLIC '-//W3C//DTD SVG 1.0//EN'  'http://www.w3.org/TR/2001/REC-SVG-20010904/DTD/svg10.dtd'>
<!-- Uploaded to: SVG Repo, www.svgrepo.com, Generator: SVG Repo Mixer Tools -->
<svg fill="#000000" width="800px" height="800px" viewBox="0 0 100 100" version="1.0" xml:space="preserve" xmlns="http://www.w3.org/2000/svg" xmlns:xlink="http://www.w3.org/1999/xlink">
<g id="_x31_"/>
<g id="_x32_"/>
<g id="_x33_"/>
<g id="_x34_"/>
<g id="_x35_"/>
<g id="_x36_"/>
<g id="_x37_"/>
<g id="_x38_">
<path d="M78.4,77.9v-5.2c0-1.1-0.9-2-2-2H24.3c-1.1,0-2,0.9-2,2v5.2h0c-3.7,0-6.7,3-6.7,6.7v4.8c0,1.1,0.9,2,2,2h65   c1.1,0,2-0.9,2-2v-4.8C84.5,81.1,81.8,78.2,78.4,77.9z M26.3,74.7h48.2v3.2H26.3V74.7z M80.5,87.4h-61v-2.8c0-1.5,1.2-2.7,2.7-2.7   h2h52.2h1.3c1.5,0,2.7,1.2,2.7,2.7V87.4z M53.3,64h-6.6c-1.1,0-2-0.9-2-2V48.4h-4.6c-1.1,0-2-0.9-2-2v-5.9c0-1.1,0.9-2,2-2h4.6   v-6.1c0-1.1,0.9-2,2-2h6.6c1.1,0,2,0.9,2,2v6.1h4c1.1,0,2,0.9,2,2v5.9c0,1.1-0.9,2-2,2h-4V62C55.3,63.1,54.4,64,53.3,64z M48.7,60   h2.6V46.4c0-1.1,0.9-2,2-2h4v-1.9h-4c-1.1,0-2-0.9-2-2v-6.1h-2.6v6.1c0,1.1-0.9,2-2,2h-4.6v1.9h4.6c1.1,0,2,0.9,2,2V60z M66.3,12.8   H33.8c-4.2,0-7.6,3.4-7.6,7.6v52.1c0,1.1,0.9,2,2,2h43.7c1.1,0,2-0.9,2-2V20.4C73.8,16.2,70.4,12.8,66.3,12.8z M30.2,70.5v-8.1   l2.6-1.4l1.5,1.6c0.8,0.8,2,0.9,2.8,0.1c0.8-0.8,0.9-2,0.1-2.8l-2.5-2.8c-0.6-0.7-1.6-0.8-2.4-0.4l-2.1,1.1V20.4   c0-2,1.6-3.6,3.6-3.6h3.1l-1.1,3c-0.2,0.6-0.1,1.4,0.3,1.9l2.1,2.8c0.4,0.5,1,0.8,1.6,0.8c0.4,0,0.8-0.1,1.2-0.4   c0.9-0.7,1.1-1.9,0.4-2.8l-1.5-2l1.3-3.3h25.1c2,0,3.6,1.6,3.6,3.6v3.7l-4.2,2l-3.7-2.4c-0.9-0.6-2.2-0.3-2.8,0.6   c-0.6,0.9-0.3,2.2,0.6,2.8l4.6,3c0.3,0.2,0.7,0.3,1.1,0.3c0.3,0,0.6-0.1,0.9-0.2l3.5-1.6v42H30.2z"/>
</g>
<g id="_x39_"/>
<g id="_x31_0"/>
<g id="_x31_1"/>
<g id="_x31_2"/>
<g id="_x31_3"/>
<g id="_x31_4"/>
<g id="_x31_5"/>
<g id="_x31_6"/>
<g id="_x31_7"/>
<g id="_x31_8"/>
<g id="_x31_9"/>
<g id="_x32_0"/>
<g id="_x32_1"/>
<g id="_x32_2"/>
<g id="_x32_3"/>
</svg>