<?xml version="1.0" encoding="UTF-8"?>
<svg version="1.1" xmlns="http://www.w3.org/2000/svg" width="512" height="512">
<path d="M0 0 C0.674256 -0.00465992 1.34851199 -0.00931984 2.04319999 -0.01412097 C4.30699015 -0.0260906 6.57018231 -0.01666835 8.8339777 -0.00736332 C10.47156629 -0.01153539 12.10915198 -0.0170122 13.74673229 -0.02368313 C18.25033408 -0.03817316 22.75375342 -0.03388194 27.25736535 -0.02651632 C32.11294259 -0.02179574 36.96847974 -0.03428463 41.82404423 -0.04453373 C51.33781302 -0.06174879 60.85151585 -0.06255615 70.36529618 -0.05732083 C78.09634974 -0.05328299 85.82738377 -0.05471808 93.55843639 -0.06006908 C95.20754933 -0.06119172 95.20754933 -0.06119172 96.88997768 -0.06233703 C99.12326463 -0.06386847 101.35655157 -0.06540682 103.58983851 -0.066952 C124.54330304 -0.08068679 145.49673026 -0.07523243 166.45019395 -0.06376678 C185.62881052 -0.05383294 204.80733065 -0.06677598 223.98593234 -0.09070098 C243.66868566 -0.11507031 263.351394 -0.12470521 283.0341621 -0.11804825 C294.08849966 -0.11455127 305.14276302 -0.11681968 316.1970892 -0.13429928 C325.60723228 -0.14899417 335.0172489 -0.14969226 344.42738944 -0.13222837 C349.23015369 -0.12369367 354.03269177 -0.12162888 358.83544445 -0.13687992 C363.23046198 -0.15066365 367.62505824 -0.14604573 372.02005101 -0.12664068 C373.61151738 -0.12286088 375.20301699 -0.12585933 376.79445391 -0.13625234 C378.95581525 -0.1493656 381.11571036 -0.13789191 383.27700806 -0.12025452 C385.07851268 -0.12009351 385.07851268 -0.12009351 386.91641134 -0.11992925 C391.70690659 0.60957344 394.84540093 2.83725532 398.0139246 6.44281673 C400.24258794 10.07905691 400.32528012 13.07947913 400.32167912 17.24584103 C400.32374111 19.08210552 400.32374111 19.08210552 400.32584476 20.95546627 C400.32230564 22.31412435 400.31867083 23.67278219 400.31494999 25.03143978 C400.31466795 26.46043553 400.31482617 27.88943142 400.31539249 29.31842709 C400.31567983 33.20036969 400.30979344 37.08228151 400.30281854 40.96421695 C400.29657435 45.02013636 400.29598035 49.07605646 400.29479313 53.13197994 C400.29168296 60.81361016 400.2834738 68.49522618 400.27344364 76.17685014 C400.26227275 84.92161232 400.25676959 93.66637517 400.2517482 102.41114271 C400.24129094 120.40087544 400.22369757 138.39059495 400.2014246 156.38031673 C399.6124036 156.17873959 399.02338261 155.97716244 398.41651249 155.76947689 C395.70063403 154.84316787 392.98232028 153.92421105 390.2639246 153.00531673 C389.33773319 152.68820736 388.41154179 152.37109798 387.45728397 152.04437923 C359.68648646 142.69000533 330.37422087 144.72879558 303.97583866 157.45307064 C295.29382061 161.86041418 287.57623689 167.00018048 280.2014246 173.38031673 C278.6854871 174.52500423 278.6854871 174.52500423 277.1389246 175.69281673 C272.24697308 180.16843195 267.19430001 185.62530786 264.06935501 191.513381 C261.68453812 193.89692797 259.87624728 193.86208612 256.59068137 193.9041667 C255.43885369 193.88843335 255.43885369 193.88843335 254.26375675 193.87238216 C253.44604398 193.87706115 252.62833121 193.88174014 251.78583926 193.88656092 C249.03578566 193.89752558 246.28664051 193.87997663 243.53662968 193.86273861 C241.56889417 193.86492365 239.60115997 193.86891912 237.63343143 193.87459469 C233.39032463 193.88317366 229.14747047 193.87935583 224.90437603 193.86617184 C218.19346778 193.84587345 211.48281543 193.85579675 204.77190495 193.87042904 C189.30811427 193.89949902 173.84439803 193.88873818 158.3805933 193.87773037 C144.22292545 193.86805633 130.06539066 193.86678543 115.90774554 193.89761114 C109.23875659 193.91098396 102.57014985 193.90502459 95.90118372 193.88424587 C91.74676806 193.87525233 87.59249931 193.88274131 83.43809605 193.89465809 C81.51444278 193.89678685 79.59076767 193.89207958 77.66715145 193.87995243 C75.03571034 193.86430143 72.40543096 193.87333647 69.77401066 193.8882513 C68.63891338 193.87251796 68.63891338 193.87251796 67.48088485 193.85646677 C62.04144015 193.92486182 57.718635 195.28558319 53.2014246 198.38031673 C50.40254382 202.2287778 49.65346959 205.75449991 49.8498621 210.42328548 C50.61666097 214.69179919 52.9949543 217.46296252 56.36230087 220.02336502 C59.93438165 221.73063163 63.06403799 221.80525096 66.93990421 221.77904415 C67.71188418 221.78569098 68.48386415 221.79233781 69.27923745 221.79918605 C71.86191427 221.81781512 74.44412777 221.81521086 77.02686405 221.81268978 C78.87980141 221.821707 80.7327328 221.83203412 82.58565617 221.84357357 C87.61414105 221.87117434 92.64251284 221.88043229 97.67106366 221.88642764 C102.92685038 221.89580327 108.18255235 221.92200602 113.43828678 221.94643307 C123.3899903 221.99012404 133.34167739 222.01865507 143.29344767 222.04175645 C154.62350559 222.06879417 165.95347836 222.11270658 177.28347552 222.15804517 C200.5894124 222.25092868 223.89537599 222.32259248 247.2014246 222.38031673 C246.92427616 223.63844173 246.64712772 224.89656673 246.36158085 226.19281673 C244.05667998 236.9729861 242.50950934 247.3508829 242.2014246 258.38031673 C240.79363853 258.38389926 240.79363853 258.38389926 239.35741234 258.38755417 C216.53145883 258.44632294 193.70561109 258.52218949 170.87977409 258.61603165 C159.84141144 258.66101613 148.80308124 258.70042469 137.76465702 258.72675228 C128.14467606 258.74971086 118.52479758 258.78308492 108.90489787 258.82901829 C103.81022597 258.85297936 98.71565575 258.87168924 93.62092876 258.87793064 C88.82664273 258.88396844 84.03261695 258.90392101 79.23842716 258.93459225 C77.4780206 258.94339342 75.71758005 258.94709076 73.95715237 258.9453249 C71.55449459 258.94367562 69.15263347 258.96034114 66.75008488 258.98158932 C66.05260555 258.97674174 65.35512622 258.97189417 64.63651115 258.96689969 C60.31957957 259.02995529 57.64937765 259.77293923 54.2014246 262.38031673 C51.39128714 265.64615216 49.94148333 268.16526544 49.7639246 272.44281673 C50.20144099 276.38046422 50.95983345 278.20472927 53.2014246 281.38031673 C53.2014246 282.04031673 53.2014246 282.70031673 53.2014246 283.38031673 C61.88460602 287.13832985 70.47060072 286.82223568 79.74659061 286.81268978 C81.5213015 286.82171621 83.29600616 286.83204559 85.07070255 286.84357357 C89.86755393 286.87106622 94.66428675 286.88041756 99.46120667 286.88642764 C104.48207689 286.89583148 109.50285925 286.92203649 114.52367496 286.94643307 C124.02192018 286.99004651 133.5201483 287.01862514 143.01846308 287.04175645 C153.83592902 287.06883577 164.65330637 287.1127456 175.47070897 287.15804517 C197.71424563 287.25081766 219.95777374 287.32031076 242.2014246 287.38031673 C242.2014246 298.93031673 242.2014246 310.48031673 242.2014246 322.38031673 C236.68923222 322.38966244 231.17703983 322.39900814 225.49781132 322.40863705 C207.30900124 322.44236663 189.12030457 322.49769134 170.93158627 322.56421947 C159.90108717 322.60403573 148.87065969 322.6364151 137.84009647 322.65131283 C128.22631109 322.66431591 118.61268311 322.69124626 108.99898636 322.7349298 C103.90816401 322.75757477 98.81753601 322.77322559 93.72665882 322.77220058 C88.93477037 322.77145577 84.14331203 322.78933474 79.35153484 322.82148457 C77.59316246 322.83000187 75.83474193 322.83172109 74.07635784 322.82611942 C71.67384872 322.81948537 69.27271049 322.83738425 66.87033939 322.8613348 C66.1757729 322.85357438 65.48120641 322.84581397 64.76559246 322.83781838 C59.82024154 322.92499374 57.03024305 324.32033276 53.2014246 327.38031673 C50.33420211 330.82098372 49.65381322 333.82827847 49.8576746 338.32172298 C50.44698162 341.85086845 51.64385711 344.84838902 54.2014246 347.38031673 C59.21148938 349.90761913 63.2823516 350.81896841 68.91466618 350.77904415 C69.65977013 350.78569098 70.40487408 350.79233781 71.17255694 350.79918605 C73.65229175 350.81773751 76.13154072 350.81521614 78.61133671 350.81268978 C80.39560466 350.82171175 82.17986642 350.83204004 83.96411991 350.84357357 C88.79621236 350.87111854 93.62818711 350.88042471 98.46034789 350.88642764 C103.51459545 350.89581779 108.56875534 350.92202173 113.62294865 350.94643307 C123.18855088 350.99008405 132.75413609 351.01863965 142.31980759 351.04175645 C155.24959001 351.07387695 168.17927097 351.12934729 181.10897636 351.1835022 C201.4730956 351.26818053 221.83717513 351.3216884 242.2014246 351.38031673 C242.2014246 378.11031673 242.2014246 404.84031673 242.2014246 432.38031673 C234.6114246 432.71031673 227.0214246 433.04031673 219.2014246 433.38031673 C210.39519108 434.91534826 201.98874788 437.49113551 195.54908085 444.06781673 C194.2014246 445.38031673 194.2014246 445.38031673 192.2014246 445.38031673 C191.8611121 446.15375423 191.8611121 446.15375423 191.5139246 446.94281673 C190.2014246 449.38031673 190.2014246 449.38031673 187.8264246 452.44281673 C180.79141788 462.16278163 180.1460411 473.5609037 179.88501835 485.13422298 C179.86423725 485.92054607 179.84345615 486.70686916 179.82204533 487.51702023 C179.75743872 489.9922098 179.69808513 492.46749163 179.6389246 494.94281673 C179.59565449 496.63618508 179.55203773 498.32954461 179.50806522 500.02289486 C179.40185069 504.14194455 179.30034212 508.26108561 179.2014246 512.38031673 C155.05369947 512.47373844 130.9060014 512.54428539 106.75813198 512.58756542 C95.54597147 512.6081948 84.33392322 512.63632269 73.12183475 512.68207455 C63.34991749 512.72193067 53.57808152 512.74774681 43.80608523 512.75667071 C38.63136999 512.76188751 33.45688733 512.77415687 28.28224659 512.80323696 C23.41165748 512.83038661 18.54139677 512.83876259 13.67073917 512.83274746 C11.88330266 512.83384789 10.09585516 512.84180446 8.30848408 512.85713863 C5.86666354 512.87705988 3.42608056 512.87224871 0.984231 512.8613348 C-0.07512801 512.87881185 -0.07512801 512.87881185 -1.1558882 512.89664197 C-6.15551296 512.8362987 -8.99951464 511.59056293 -12.7985754 508.38031673 C-16.09275047 504.12892874 -16.2238266 500.25343805 -16.17889214 495.06685638 C-16.18588201 493.80981402 -16.18588201 493.80981402 -16.1930131 492.52737686 C-16.20500705 489.7065163 -16.19555072 486.88613349 -16.18625546 484.06526852 C-16.19042644 482.02757502 -16.19590266 479.98988385 -16.20257527 477.95219702 C-16.2170794 472.34265396 -16.21276966 466.73325721 -16.20540845 461.12370598 C-16.20069136 455.077937 -16.21317366 449.03220034 -16.22342587 442.98644161 C-16.2396517 431.82375954 -16.24205324 420.66112299 -16.23712087 409.49843535 C-16.23256643 399.18616766 -16.23315946 388.8739174 -16.23896122 378.56165028 C-16.23971808 377.17920718 -16.24047406 375.79676408 -16.24122917 374.41432099 C-16.24237434 372.3311898 -16.24352422 370.24805861 -16.24468841 368.16492743 C-16.25539592 348.79385937 -16.26011607 329.42279713 -16.25221825 310.05172729 C-16.25192107 309.32127572 -16.2516239 308.59082414 -16.25131772 307.83823767 C-16.2488687 301.90618119 -16.24625716 295.97412478 -16.24363359 290.04206838 C-16.23353026 266.90063988 -16.24188716 243.75928394 -16.26512814 220.61786556 C-16.29118901 194.62649229 -16.30405183 168.63516271 -16.29694039 142.64377588 C-16.29622431 139.87345025 -16.29554992 137.10312461 -16.29489994 134.33279896 C-16.29473013 133.65065966 -16.29456032 132.96852036 -16.29438537 132.26571018 C-16.29208054 121.96000914 -16.30006809 111.65434861 -16.31319141 101.34865665 C-16.32808596 89.63104015 -16.32859292 77.91350241 -16.3111205 66.19588215 C-16.30258049 60.21442841 -16.30053404 54.23315634 -16.31577206 48.25171185 C-16.32953981 42.77977732 -16.32495838 37.30818146 -16.30553282 31.83626693 C-16.3017481 29.85314745 -16.30476527 27.87000136 -16.31514447 25.88690544 C-16.32822368 23.1973975 -16.31681244 20.50907423 -16.29914665 17.81961823 C-16.30879716 17.0442629 -16.31844768 16.26890757 -16.32839063 15.47005662 C-16.25820513 10.2890611 -15.16742281 7.30861106 -11.7985754 3.38031673 C-7.91027858 0.28446431 -4.90170563 0.0042008 0 0 Z M51.8889246 102.94281673 C49.02528181 107.07918966 48.69236536 110.41930302 49.2014246 115.38031673 C50.91871048 120.08025703 53.06749126 122.58991173 57.2014246 125.38031673 C60.45554228 126.46502263 62.82964116 126.5115223 66.25435734 126.52075863 C67.52034763 126.52646877 68.78633793 126.53217892 70.09069157 126.5380621 C71.49649896 126.53930744 72.90230647 126.54043254 74.30811405 126.54144955 C75.78648852 126.54607814 77.2648618 126.55110286 78.74323368 126.55649471 C82.76192532 126.5696169 86.78060025 126.57606334 90.79930997 126.58050537 C93.31017834 126.58343645 95.82104215 126.58754133 98.33190823 126.59200954 C106.18824407 126.60568413 114.04456948 126.61535092 121.9009164 126.61921144 C130.96912323 126.62369195 140.03717931 126.64123963 149.1053403 126.67021203 C156.11520614 126.69183062 163.12502958 126.70191581 170.13492841 126.70325255 C174.32139644 126.70430048 178.50772276 126.71020548 182.69415569 126.72807217 C186.63319269 126.74455592 190.57198148 126.74670696 194.51104069 126.73793316 C195.95499365 126.73716294 197.39895998 126.74150359 198.8428793 126.75139141 C200.81772585 126.76411946 202.79267221 126.75643929 204.76754093 126.74780941 C206.423689 126.75000925 206.423689 126.75000925 208.1132946 126.75225353 C213.00378948 126.16323849 216.22950537 124.45730831 219.5139246 120.81781673 C222.60698803 116.35005844 222.85956747 112.7356163 222.2014246 107.38031673 C219.54783962 102.26268856 216.67024634 99.20325731 211.2014246 97.38031673 C209.18560547 97.28257677 207.16667179 97.2453178 205.14849186 97.23987484 C203.88250156 97.2341647 202.61651127 97.22845455 201.31215763 97.22257137 C199.90635023 97.22132603 198.50054273 97.22020093 197.09473515 97.21918392 C195.61636068 97.21455532 194.1379874 97.20953061 192.65961552 97.20413876 C188.64092388 97.19101657 184.62224894 97.18457013 180.60353923 97.1801281 C178.09267086 97.17719702 175.58180705 97.17309214 173.07094097 97.16862392 C165.21460513 97.15494934 157.35827972 97.14528255 149.5019328 97.14142203 C140.43372597 97.13694152 131.36566989 97.11939384 122.2975089 97.09042144 C115.28764305 97.06880285 108.27781962 97.05871765 101.26792079 97.05738091 C97.08145276 97.05633299 92.89512644 97.05042799 88.7086935 97.0325613 C84.76965651 97.01607755 80.83086771 97.0139265 76.89180851 97.02270031 C75.44785554 97.02347053 74.00388922 97.01912988 72.5599699 97.00924206 C70.58512335 96.99651401 68.61017698 97.00419418 66.63530827 97.01282406 C65.53120955 97.0113575 64.42711084 97.00989094 63.2895546 97.00837994 C58.39905972 97.59739497 55.17334382 99.30332516 51.8889246 102.94281673 Z M51.93970585 407.97406673 C48.93194411 412.13762006 48.52700099 416.37438379 49.2014246 421.38031673 C51.59963489 426.17673732 54.40500402 428.98210644 59.2014246 431.38031673 C65.31818643 432.1570484 69.22418087 431.12955055 74.2014246 427.38031673 C76.27878406 425.59346923 78.31496311 423.76560778 80.35376835 421.93500423 C82.5600982 420.07851527 84.37137643 418.99221904 87.2014246 418.38031673 C91.05107351 418.82954643 93.11700888 419.763933 95.9514246 422.38031673 C96.64107304 423.00937923 97.33072147 423.63844173 98.04126835 424.28656673 C100.25652751 426.4337257 102.38081119 428.6518047 104.5139246 430.88031673 C112.81562893 439.2534643 122.67978251 445.33599198 134.6389246 445.75531673 C148.72732919 445.26545566 158.85456103 437.76025285 169.1076746 428.68891048 C172.36326025 425.09926288 174.0278681 421.74397494 174.6389246 416.94281673 C174.11770408 412.69859252 173.0123756 409.5781683 170.2014246 406.38031673 C166.39362737 403.44022551 163.11556478 402.43929352 158.3264246 402.13031673 C153.48835783 403.0332958 150.24006934 406.25667533 146.5842371 409.36469173 C142.57822048 412.75338776 139.34893281 415.40055238 133.88501835 415.34906673 C129.10577119 414.09217034 127.16709838 411.91471474 123.9514246 408.31781673 C114.09846508 397.91351319 103.25790164 389.1299084 88.5139246 388.13031673 C74.35475915 388.36985149 60.94346566 397.64851144 51.93970585 407.97406673 Z " fill="#000000" transform="translate(15.798575401306152,-0.38031673431396484)"/>
<path d="M0 0 C15.93213692 13.21018876 27.27500057 31.55295532 30 52.3125 C30.28293196 58.44436236 30.25331588 64.56842319 30.22705078 70.70556641 C30.22648591 72.55923456 30.22680471 74.41290315 30.22793579 76.26657104 C30.22850733 81.27412331 30.21678525 86.28157887 30.20278788 91.28910875 C30.19024733 96.53146907 30.1891074 101.77383183 30.18673706 107.01620483 C30.18053204 116.93236392 30.16413449 126.84847867 30.14403808 136.76461828 C30.11745845 150.17208394 30.10669853 163.57956181 30.09503365 176.9870472 C30.07625318 198.09556464 30.03640096 219.20398855 30 240.3125 C-23.79 240.3125 -77.58 240.3125 -133 240.3125 C-133.16121214 193.52067727 -133.16121214 193.52067727 -133.1953125 173.86132812 C-133.21901548 160.30535811 -133.24682896 146.74948779 -133.30175781 133.19360352 C-133.34174907 123.31942019 -133.36746203 113.44531802 -133.37635398 103.57105595 C-133.38154797 98.34742846 -133.39367116 93.12403305 -133.42292023 87.90048027 C-133.45028386 82.97323067 -133.45840309 78.04630641 -133.45243073 73.11898804 C-133.45352167 71.32081897 -133.46134976 69.52263782 -133.4768219 67.72453499 C-133.59207619 53.62606611 -132.00948621 40.72966725 -125.25 28.0625 C-124.90710938 27.40121094 -124.56421875 26.73992187 -124.2109375 26.05859375 C-113.91002428 6.69738825 -98.04820699 -6.82773207 -77.23828125 -13.98046875 C-50.01934286 -21.99284487 -22.67942207 -17.28291884 0 0 Z M-61.515625 21.78125 C-64.87748085 25.72273617 -66.12830025 28.01465817 -66.09765625 33.1015625 C-66.09282227 34.51308594 -66.09282227 34.51308594 -66.08789062 35.953125 C-66.07951172 36.93796875 -66.07113281 37.9228125 -66.0625 38.9375 C-66.05798828 39.93007812 -66.05347656 40.92265625 -66.04882812 41.9453125 C-66.03702145 44.4011016 -66.020554 46.85677104 -66 49.3125 C-67.21816406 49.28929687 -68.43632812 49.26609375 -69.69140625 49.2421875 C-71.31509799 49.2234165 -72.93879642 49.20521773 -74.5625 49.1875 C-75.76229492 49.16236328 -75.76229492 49.16236328 -76.98632812 49.13671875 C-82.69398443 49.09012564 -88.39112015 49.10898396 -92.9609375 52.96875 C-93.42757812 53.5771875 -93.89421875 54.185625 -94.375 54.8125 C-94.85710937 55.4209375 -95.33921875 56.029375 -95.8359375 56.65625 C-98.43245994 60.35063092 -98.59030938 63.9179746 -98 68.3125 C-95.74126288 72.66266037 -93.09194721 75.61780306 -89 78.3125 C-84.30559344 79.67140716 -79.52836383 79.42466948 -74.6875 79.375 C-73.85154297 79.37048828 -73.01558594 79.36597656 -72.15429688 79.36132812 C-70.10283351 79.34960548 -68.05140727 79.33167203 -66 79.3125 C-66.00888245 80.36184219 -66.01776489 81.41118439 -66.0269165 82.49232483 C-66.10809556 92.39404867 -66.16801016 102.29570475 -66.20724869 112.1976862 C-66.22810002 117.2881008 -66.25637295 122.37824618 -66.30175781 127.46850586 C-66.34530292 132.38332697 -66.36915556 137.29788955 -66.37950897 142.21288872 C-66.38688478 144.08554591 -66.40128811 145.95818938 -66.42292023 147.83073616 C-66.45206962 150.45916148 -66.45595122 153.08652626 -66.45410156 155.71508789 C-66.46848267 156.48473373 -66.48286377 157.25437958 -66.49768066 158.04734802 C-66.4558568 163.56051423 -65.1116262 166.74860116 -62 171.3125 C-59.04781982 173.84294015 -55.7748047 175.21117597 -51.87890625 175.43359375 C-47.62514885 175.05566067 -44.26936531 174.0369711 -41 171.3125 C-37.30572473 165.92590037 -36.42529094 162.16974252 -36.54589844 155.71508789 C-36.54531433 154.88501221 -36.54473022 154.05493652 -36.54412842 153.19970703 C-36.54689746 150.47775282 -36.57793255 147.75691725 -36.609375 145.03515625 C-36.61684161 143.13944598 -36.62253256 141.24372797 -36.62652588 139.3480072 C-36.64174915 134.37481118 -36.68100233 129.40208744 -36.7253418 124.42907715 C-36.766366 119.34796537 -36.78455214 114.26677677 -36.8046875 109.18554688 C-36.84749989 99.22765785 -36.91571099 89.2701183 -37 79.3125 C-35.19015625 79.36470703 -35.19015625 79.36470703 -33.34375 79.41796875 C-31.72918072 79.44612984 -30.11459621 79.47342749 -28.5 79.5 C-27.70851563 79.52513672 -26.91703125 79.55027344 -26.1015625 79.57617188 C-20.13099774 79.64958046 -14.03750389 79.1333441 -9.43579102 74.85986328 C-5.86946995 70.67918397 -4.63868465 67.93075892 -4.71875 62.40625 C-5.33087593 57.84931254 -8.22878812 55.04416256 -11.4375 52 C-16.5994172 48.60068867 -22.34398726 49.18876033 -28.3125 49.25 C-29.14845703 49.25451172 -29.98441406 49.25902344 -30.84570312 49.26367188 C-32.89716649 49.27539452 -34.94859273 49.29332797 -37 49.3125 C-36.97643433 48.45084229 -36.97643433 48.45084229 -36.95239258 47.57177734 C-36.88964487 44.94378691 -36.85088494 42.31595463 -36.8125 39.6875 C-36.78736328 38.78386719 -36.76222656 37.88023437 -36.73632812 36.94921875 C-36.65952263 29.93431661 -37.69811 25.66670568 -42.75 20.5 C-49.13305631 16.2037121 -55.75470696 16.19850469 -61.515625 21.78125 Z " fill="#000000" transform="translate(420,191.6875)"/>
<path d="M0 0 C0.92127269 -0.00384115 1.84254537 -0.00768229 2.79173541 -0.01163983 C3.8054324 -0.01077335 4.81912939 -0.00990687 5.86354446 -0.00901413 C7.47706767 -0.01347081 7.47706767 -0.01347081 9.1231873 -0.01801753 C12.74589632 -0.02672421 16.36857238 -0.02821444 19.99129105 -0.02970505 C22.5813288 -0.03433183 25.17136586 -0.0393563 27.76140213 -0.04475021 C34.81105471 -0.05833626 41.86070161 -0.06435877 48.9103651 -0.06876087 C53.31208988 -0.07152303 57.71381245 -0.07576035 62.11553574 -0.08026505 C74.30205904 -0.09245843 86.48858059 -0.10275737 98.67510986 -0.10614014 C99.45519294 -0.1063597 100.23527601 -0.10657927 101.03899796 -0.10680549 C101.82095172 -0.10702377 102.60290547 -0.10724204 103.40855479 -0.10746694 C104.99309969 -0.1079104 106.57764459 -0.10835697 108.16218948 -0.10880661 C108.94817911 -0.10902804 109.73416873 -0.10924947 110.54397622 -0.10947761 C123.2781401 -0.11342512 136.01224675 -0.13087737 148.74638852 -0.15416613 C161.81963305 -0.17788209 174.89284885 -0.19034211 187.96611524 -0.19150805 C195.30653707 -0.19242472 202.64688433 -0.19817474 209.98728561 -0.21632767 C216.89175643 -0.23334229 223.79608352 -0.23497942 230.70056915 -0.22618866 C233.23580046 -0.22541656 235.77103929 -0.22978365 238.30625153 -0.23964691 C241.76546032 -0.25231643 245.22416366 -0.2465163 248.68336868 -0.23606491 C249.68814278 -0.24412132 250.69291688 -0.25217772 251.72813869 -0.26047826 C257.43654493 -0.22010329 261.49719972 0.35919678 266.52742386 3.13142776 C272.43845385 9.50911802 271.77833894 15.35598895 271.82258987 23.62459183 C271.83975369 25.85927245 271.88363229 28.09245398 271.92781448 30.32674026 C271.93794629 31.75641692 271.94646087 33.18610612 271.95320511 34.61580276 C271.97507889 36.56051468 271.97507889 36.56051468 271.99739456 38.5445137 C271.3390781 43.56892174 269.42990199 46.54183341 265.55787945 49.7770586 C261.00013241 51.81400383 256.69295247 51.54798099 251.75424576 51.51910782 C250.10647429 51.52718613 250.10647429 51.52718613 248.4254145 51.53542763 C244.73738048 51.54975713 241.04970285 51.54259097 237.36165237 51.5354805 C234.72042577 51.54118145 232.07922492 51.54804376 229.43800735 51.55627823 C223.00435374 51.57347673 216.57079775 51.57430409 210.13712711 51.56906532 C204.90797764 51.56502436 199.67885703 51.5664663 194.44970894 51.57181358 C193.70554655 51.57256201 192.96138417 51.57331043 192.1946714 51.57408153 C190.68292045 51.575613 189.17116951 51.57715135 187.65941858 51.5786965 C173.48164375 51.59242532 159.30392411 51.58698116 145.12615054 51.57551128 C132.15538159 51.56557834 119.18475528 51.5785199 106.21400834 51.60244548 C92.89548006 51.62682747 79.57701824 51.63644658 66.25846809 51.62979275 C58.78116358 51.62629854 51.30396878 51.62854587 43.82668114 51.64604378 C37.46145463 51.66075453 31.09641509 51.66141609 24.7311923 51.64397287 C21.48377572 51.63545099 18.23676265 51.6355037 14.98935127 51.64862442 C11.46844518 51.66176571 7.94845194 51.65034644 4.4275856 51.63263321 C3.40180816 51.64223822 2.37603071 51.65184322 1.3191691 51.66173929 C-4.59297477 51.60039694 -7.96799189 51.06720858 -12.47257614 47.13142776 C-17.17432819 40.64625253 -16.68552511 34.10656682 -16.72257614 26.38142776 C-16.74320114 25.32181839 -16.76382614 24.26220901 -16.78507614 23.17049026 C-16.81799003 16.53834075 -16.79590434 9.7748353 -12.05558395 4.57796097 C-8.16782029 1.17886593 -5.0600884 0.00791356 0 0 Z " fill="#000000" transform="translate(240.47257614135742,460.8685722351074)"/>
</svg>
